<svg width="828" height="501" viewBox="0 0 828 501" fill="none" xmlns="http://www.w3.org/2000/svg">
<g id="undraw_birthday_cake_re_bsw5 1" clip-path="url(#clip0_2_2)">
<ellipse id="background" cx="368" cy="300.5" rx="368" ry="267.5" fill="#C4C4C4"/>
<path id="candle3" d="M398.323 120.782C405.619 119.537 408.746 110.736 407.032 104.254C405.918 100.04 403.303 96.4239 400.397 93.2537C397.025 89.5753 393.284 86.2161 389.691 82.7574C385.298 78.5282 380.905 74.299 376.511 70.0699C376.324 69.8878 376.093 69.7572 375.841 69.6909C375.588 69.6245 375.323 69.6247 375.07 69.6913C374.818 69.758 374.587 69.8888 374.4 70.0711C374.213 70.2534 374.077 70.481 374.004 70.7317C372.104 83.1129 375.084 95.7483 382.317 105.975C384.165 108.53 386.246 110.907 388.533 113.078C390.765 115.223 393.158 117.359 394.544 120.181L398.579 123.139C398.445 122.346 398.245 121.566 397.98 120.806C398.095 120.81 398.21 120.802 398.323 120.782V120.782Z" fill="#FD6584"/>
<path id="candle1" d="M281.324 117.782C288.619 116.537 291.746 107.736 290.032 101.254C288.918 97.0405 286.303 93.4239 283.397 90.2537C280.025 86.5753 276.284 83.2161 272.691 79.7574C268.298 75.5282 263.905 71.299 259.511 67.0699C259.324 66.8878 259.093 66.7572 258.841 66.6909C258.588 66.6245 258.323 66.6247 258.07 66.6913C257.818 66.758 257.587 66.8888 257.4 67.0711C257.213 67.2534 257.077 67.481 257.004 67.7317C255.104 80.1129 258.085 92.7483 265.318 102.975C267.165 105.53 269.246 107.907 271.533 110.078C273.765 112.223 276.158 114.359 277.544 117.181L281.579 120.139C281.445 119.346 281.245 118.566 280.98 117.806C281.095 117.81 281.21 117.802 281.324 117.782V117.782Z" fill="#FD6584"/>
<path id="candle2" d="M336.323 112.782C343.619 111.537 346.746 102.736 345.032 96.2545C343.918 92.0405 341.303 88.4239 338.397 85.2537C335.025 81.5753 331.284 78.2161 327.691 74.7574C323.298 70.5282 318.905 66.299 314.511 62.0699C314.324 61.8878 314.093 61.7572 313.841 61.6909C313.588 61.6245 313.323 61.6247 313.07 61.6913C312.818 61.758 312.587 61.8888 312.4 62.0711C312.213 62.2534 312.077 62.481 312.004 62.7317C310.104 75.1129 313.085 87.7483 320.318 97.9751C322.165 100.53 324.246 102.907 326.533 105.078C328.765 107.223 331.158 109.359 332.544 112.181L336.579 115.139C336.446 114.346 336.245 113.566 335.98 112.806C336.095 112.81 336.21 112.802 336.323 112.782V112.782Z" fill="#FD6584"/>
<g id="balloonstring">
<path id="Vector" d="M203.297 195.7C210.314 192.604 218.776 193.777 225.039 198.05C231.634 202.55 234.705 210.473 233.903 218.291C233.458 222.777 231.64 227.017 228.697 230.431L229.757 229.992C226.491 229.952 224.702 226.13 225.199 223.244C225.871 219.335 230.335 217.312 233.883 217.019C238.712 216.619 243.356 218.713 247.711 220.521C252.386 222.475 257.174 224.146 262.049 225.525C271.965 228.293 282.187 229.817 292.479 230.062C297.552 230.185 302.628 229.986 307.677 229.468C312.291 228.994 317.02 228.408 321.348 226.652C325.722 224.877 329.501 221.957 331.37 217.521C332.291 215.556 332.663 213.379 332.449 211.22C332.234 209.061 331.44 207 330.15 205.255C329.963 205.072 329.732 204.94 329.48 204.873C329.227 204.806 328.961 204.806 328.708 204.873C328.455 204.939 328.224 205.071 328.037 205.254C327.851 205.437 327.715 205.665 327.643 205.917C326.951 209.34 326.979 212.87 327.728 216.282C328.476 219.693 329.927 222.912 331.988 225.731C334.178 228.739 337.018 231.215 340.297 232.974C343.576 234.732 347.209 235.73 350.927 235.89C359.414 236.349 367.715 233.059 375.086 229.163C382.789 225.091 389.816 219.874 397.648 216.028C405.202 212.317 413.904 209.585 422.309 211.811C429.008 213.585 436.089 219.436 433.878 227.127C433.025 230.098 430.642 232.599 427.406 232.589C424.66 232.581 421.491 230.845 421.159 227.875C420.762 224.316 424.171 221.52 427.204 220.471C431.549 218.966 436.395 220.093 440.839 220.471C448.135 221.124 455.416 219.066 461.29 214.688C466.955 210.565 471.082 204.67 473.018 197.936C473.474 196.221 473.77 194.467 473.902 192.697C474.056 190.772 471.056 190.782 470.902 192.697C470.532 196.307 469.45 199.807 467.718 202.996C465.986 206.185 463.64 208.999 460.813 211.275C458.001 213.623 454.754 215.395 451.257 216.489C447.458 217.574 443.476 217.867 439.559 217.35C435.052 216.891 430.208 216.068 425.856 217.781C422.523 219.093 419.305 221.697 418.391 225.309C416.613 232.339 424.657 237.431 430.823 234.941C437.741 232.147 438.809 222.814 435.124 217.098C430.695 210.228 421.857 207.556 414.051 208.068C395.503 209.283 382.045 224.147 365.307 230.335C357.409 233.255 348.287 234.384 340.736 229.862C337.678 227.961 335.12 225.355 333.275 222.263C331.43 219.17 330.352 215.682 330.131 212.088C330.029 210.287 330.165 208.48 330.536 206.715L328.029 207.376C329.898 209.794 329.82 213.096 328.824 215.849C327.613 218.932 325.294 221.451 322.323 222.914C319.055 224.511 315.539 225.537 311.926 225.947C307.921 226.528 303.886 226.884 299.842 227.014C283.566 227.611 267.338 224.914 252.13 219.084C245.277 216.452 238.016 212.39 230.47 214.63C224.783 216.318 220.422 221.758 222.8 227.768C223.235 229.023 223.979 230.148 224.963 231.04C225.947 231.932 227.14 232.561 228.432 232.871C229.116 233.077 229.849 233.047 230.514 232.787C231.123 232.312 231.639 231.728 232.035 231.064C233.044 229.742 233.904 228.313 234.602 226.804C237.258 221.026 237.75 214.486 235.988 208.376C231.809 194.19 215.088 187.239 201.783 193.109C200.02 193.887 201.545 196.472 203.297 195.7L203.297 195.7Z" fill="#3F3D56"/>
<path id="Vector_2" d="M476.719 68.0748C474.245 78.9445 473.069 91.2677 479.668 100.995C482.473 105.168 486.59 108.286 491.366 109.857C496.201 111.29 501.299 111.603 506.273 110.772C517.528 109.213 527.531 103.35 538.601 101.074C543.486 100.069 548.67 99.7373 553.372 101.671C556.896 103.119 560.607 106.031 560.624 110.185C560.641 114.451 556.936 117.282 553.252 118.594C548.335 120.344 543.225 119.667 538.126 119.446C532.633 119.208 527.033 119.705 522.47 123.069C518.545 126.132 515.536 130.212 513.768 134.866C511.475 140.432 510.544 146.416 509.078 152.224C507.767 157.445 505.912 162.515 503.545 167.349C498.9 176.826 492.389 185.266 484.401 192.164C480.462 195.554 475.676 199.008 470.296 199.319C466.146 199.558 461.102 197.815 459.503 193.612C458.909 191.797 458.967 189.832 459.667 188.056C460.368 186.279 461.666 184.803 463.339 183.883C466.895 182.088 470.768 184.648 471.917 188.162C472.218 188.971 472.323 189.841 472.224 190.7C472.125 191.558 471.824 192.381 471.346 193.101C470.268 194.709 472.865 196.212 473.937 194.615C476.423 190.907 475.124 185.919 472.078 182.949C470.592 181.434 468.606 180.512 466.49 180.354C464.374 180.196 462.273 180.814 460.579 182.092C458.819 183.432 457.488 185.257 456.751 187.342C456.013 189.427 455.9 191.683 456.426 193.831C457.705 198.448 462.241 201.385 466.771 202.112C472.366 203.01 477.749 200.812 482.265 197.636C486.796 194.365 490.915 190.56 494.534 186.303C501.892 177.841 507.422 167.952 510.78 157.254C514.083 146.672 514.323 132.694 524.134 125.548C529.183 121.871 535.37 122.279 541.289 122.616C546.515 122.914 551.612 122.86 556.406 120.495C560.365 118.541 563.558 114.936 563.624 110.342C563.691 105.705 560.399 101.976 556.52 99.8636C546.272 94.2824 533.965 98.7836 523.898 102.512C513.773 106.262 502.214 110.663 491.454 106.717C486.488 104.787 482.49 100.967 480.337 96.0943C477.731 90.569 477.36 84.2997 477.962 78.3033C478.317 75.1286 478.868 71.979 479.612 68.8724C480.04 66.9927 477.148 66.1901 476.719 68.0749V68.0748Z" fill="#3F3D56"/>
</g>
<path id="haert" d="M496.587 37.5618C493.62 47.4667 489.148 56.8565 483.327 65.4018C481.887 67.5019 480.374 69.5485 478.787 71.5418C477.554 69.3005 476.06 67.2128 474.337 65.3218C468.287 58.6718 460.177 54.3218 452.307 49.9618C444.437 45.6018 436.447 40.9218 430.887 33.8518C428.392 30.6693 426.606 26.9906 425.647 23.0618C424.387 17.7318 424.867 12.1718 427.977 7.72181C432.497 1.25181 441.507 -1.02818 449.167 0.841825C456.837 2.71182 463.257 8.04182 468.237 14.1618C466.607 6.64182 474.537 -0.618178 482.207 0.0418216C489.877 0.711822 496.027 7.41181 498.067 14.8318C500.117 22.2418 498.787 30.1818 496.587 37.5618Z" fill="#F50057"/>
<path id="Vector_3" d="M827.13 499.407C827.13 499.564 827.1 499.719 827.04 499.863C826.981 500.008 826.893 500.139 826.783 500.25C826.672 500.36 826.541 500.448 826.396 500.508C826.251 500.567 826.096 500.598 825.94 500.597L600.91 500.627L585.19 500.637L574.82 500.647H563.35L557.09 500.657L539.71 500.667L266.25 500.807L264.17 500.817L141.85 500.857H139.83L35.7101 500.897H33.69L1.19005 500.907C0.874441 500.907 0.571771 500.782 0.348602 500.559C0.125434 500.336 4.57764e-05 500.033 4.57764e-05 499.717C4.57764e-05 499.402 0.125434 499.099 0.348602 498.876C0.571771 498.653 0.874441 498.527 1.19005 498.527L34.0301 498.517H36.05L140.14 498.477H142.16L263.53 498.437H265.6L369.02 498.397H370.38L537.81 498.297L555.16 498.287L563.1 498.277L575.65 498.267H586.37L603.26 498.257L825.94 498.217C826.096 498.217 826.251 498.247 826.396 498.307C826.541 498.367 826.672 498.454 826.783 498.565C826.893 498.675 826.981 498.807 827.04 498.951C827.1 499.096 827.13 499.251 827.13 499.407V499.407Z" fill="#CACACA"/>
<g id="maingroup">
<path id="Vector_4" d="M621.814 32.4033C623.701 28.0427 626.565 24.1742 630.185 21.0964C633.805 18.0186 638.084 15.814 642.691 14.6526C652.921 11.9918 667.9 16.0451 675.59 21.8648C689.657 32.5103 693.09 69.0814 683.425 80.6383C681.503 80.561 674.87 80.5039 672.924 80.4485L670.172 73.4829V80.3799C654.986 80.0235 639.175 80.2467 623.356 80.4774C621.939 72.295 618.561 40.2743 621.814 32.4033Z" fill="#2F2E41"/>
<path id="Vector_5" d="M624.392 473.392L610.541 473.391L603.951 419.964L624.394 419.965L624.392 473.392Z" fill="#9E616A"/>
<path id="Vector_6" d="M745.646 464.778L732.242 468.272L712.389 418.235L732.172 413.079L745.646 464.778Z" fill="#9E616A"/>
<path id="Vector_7" d="M642.962 71.8179C655.079 71.8179 664.901 61.9958 664.901 49.8795C664.901 37.7633 655.079 27.9412 642.962 27.9412C630.846 27.9412 621.024 37.7633 621.024 49.8795C621.024 61.9958 630.846 71.8179 642.962 71.8179Z" fill="#9E616A"/>
<path id="Vector_8" d="M627.888 21.3119C632.103 18.7421 636.932 17.352 641.868 17.2869C646.805 17.2218 651.668 18.4842 655.95 20.942C660.231 23.3998 663.774 26.9627 666.207 31.2583C668.64 35.5539 669.875 40.4243 669.782 45.3604C657.823 48.4168 645.079 49.6953 631.575 46.0965L628.488 38.5412L626.668 46.1021C622.536 49.0084 618.548 49.0031 614.704 46.0864C614.541 41.1643 615.673 36.2856 617.987 31.9381C620.3 27.5905 623.715 23.9264 627.888 21.3119V21.3119Z" fill="#2F2E41"/>
<path id="Vector_9" d="M630.588 499.692H620.759L619.005 490.413L614.512 499.692H588.444C587.194 499.692 585.977 499.293 584.971 498.552C583.964 497.812 583.221 496.769 582.849 495.576C582.477 494.383 582.496 493.103 582.904 491.921C583.311 490.74 584.085 489.72 585.114 489.01L605.931 474.633V465.252L627.827 466.559L630.588 499.692Z" fill="#2F2E41"/>
<path id="Vector_10" d="M759.49 488.349L749.979 490.828L745.941 482.291L743.934 492.404L718.708 498.979C717.499 499.294 716.221 499.215 715.06 498.752C713.899 498.29 712.917 497.468 712.256 496.407C711.596 495.347 711.291 494.103 711.388 492.857C711.484 491.611 711.976 490.429 712.792 489.482L729.31 470.319L726.943 461.242L748.461 456.983L759.49 488.349Z" fill="#2F2E41"/>
<path id="Vector_11" d="M743.946 431.179C735.469 399.666 726.043 368.847 703.345 347.732L697.096 256.032C705.884 239.712 683.067 196.637 683.067 196.637L675.096 185.032L619.846 194.621V194.621C606.916 229.889 600.611 238.584 601.354 304.808C602.096 371.032 603.901 439.818 603.901 439.818H603.102C601.776 439.818 600.504 440.345 599.567 441.283C598.629 442.22 598.102 443.492 598.102 444.818C598.102 446.144 598.629 447.416 599.567 448.354C600.504 449.292 601.776 449.818 603.102 449.818H628.102C629.428 449.818 630.7 449.292 631.638 448.354C632.575 447.416 633.102 446.144 633.102 444.818C633.102 443.492 632.575 442.22 631.638 441.283C630.7 440.345 629.428 439.818 628.102 439.818H627.458C642.132 398.57 644.753 335.129 645.405 268.062L666.272 352.819L716.702 430.859C715.416 430.959 714.218 431.554 713.361 432.518C712.504 433.483 712.054 434.742 712.106 436.031C712.158 437.32 712.707 438.539 713.639 439.432C714.571 440.325 715.812 440.822 717.102 440.818H742.102C743.265 440.82 744.392 440.415 745.288 439.675C746.185 438.934 746.795 437.904 747.013 436.762C747.232 435.62 747.045 434.437 746.485 433.418C745.925 432.399 745.027 431.607 743.946 431.179V431.179Z" fill="#2F2E41"/>
<g id="Vector_12" filter="url(#filter0_i_2_2)">
<path d="M688.783 205.185H688.782C688.575 204.369 688.114 203.64 687.466 203.102C686.819 202.564 686.017 202.245 685.177 202.19C678.374 195.285 673.277 134.004 678.629 129.769L678.62 129.693L677.026 95.6355C676.968 94.3986 676.457 93.2263 675.589 92.3427C674.722 91.459 673.559 90.9259 672.324 90.8452L663.903 90.2948C663.787 90.2909 663.678 90.2422 663.597 90.1591C663.517 90.076 663.472 89.965 663.472 89.8494C663.472 88.9195 663.289 87.9987 662.933 87.1395C662.577 86.2804 662.056 85.4997 661.398 84.8421C660.74 84.1845 659.96 83.663 659.101 83.3071C658.242 82.9512 657.321 82.768 656.391 82.768H631.46C629.845 82.7687 628.286 83.3587 627.075 84.4273C625.864 85.4959 625.085 86.9696 624.884 88.5719C624.873 88.6822 624.821 88.7842 624.738 88.8577C624.655 88.9311 624.547 88.9705 624.436 88.968L624.433 88.9679C621.6 88.9095 618.84 89.8686 616.654 91.6712C614.468 93.4737 613 96.0002 612.518 98.7923C609.109 118.623 610.719 160.01 614.096 185.032C615.272 193.743 606.297 210.466 605.852 217.754C605.808 218.459 605.903 219.165 606.133 219.832C606.362 220.5 606.721 221.115 607.188 221.644C606.194 221.93 605.35 222.592 604.834 223.489C604.318 224.386 604.17 225.448 604.422 226.451H604.422C604.681 227.48 605.338 228.364 606.249 228.908C607.16 229.452 608.249 229.612 609.278 229.352L685.882 210.042C686.91 209.782 687.794 209.125 688.338 208.214C688.882 207.303 689.042 206.214 688.783 205.185Z" fill="#FD005A"/>
</g>
<path id="Vector_13" d="M524.015 121.186C525.344 120.667 526.771 120.446 528.195 120.538C529.619 120.63 531.005 121.033 532.256 121.719C533.508 122.404 534.593 123.356 535.437 124.507C536.281 125.658 536.862 126.979 537.139 128.379L614.115 144.933L602.214 158.47L528.794 140.081C526.412 140.391 523.999 139.817 522.011 138.467C520.024 137.117 518.601 135.085 518.012 132.756C517.423 130.427 517.709 127.963 518.815 125.831C519.922 123.698 521.772 122.046 524.015 121.186V121.186Z" fill="#9E616A"/>
<path id="Vector_14" d="M625.336 163.6C613.451 169.821 541.659 145.484 538.523 144.416L537.726 144.144L552.489 130.573L609.29 138.89L611.011 105.633C611.206 101.963 612.53 98.4429 614.803 95.555C617.075 92.6671 620.185 90.5523 623.706 89.5005C626.825 88.5731 630.138 88.5186 633.285 89.3429C636.433 90.1672 639.294 91.8388 641.557 94.1758C643.821 96.5128 645.4 99.4258 646.123 102.598C646.846 105.77 646.686 109.08 645.659 112.167L631.604 154.429C630.521 157.673 628.672 160.608 626.212 162.984C625.951 163.23 625.655 163.438 625.336 163.6Z" fill="#F50057"/>
<path id="Vector_15" d="M559.697 499.032H115.362L115.252 498.682L115.142 498.332C113.689 493.714 112.361 489.031 111.165 484.319C109.97 479.607 108.907 474.864 107.985 470.124C106.732 463.688 105.728 457.185 104.978 450.661C104.228 444.136 103.733 437.591 103.497 431.069C103.086 419.508 105.012 407.983 109.16 397.185C113.308 386.386 119.593 376.536 127.637 368.223C135.681 359.91 145.32 353.306 155.977 348.805C166.633 344.305 178.088 342.002 189.656 342.032H493.826C505.922 342.011 517.886 344.54 528.939 349.453C539.992 354.367 549.885 361.555 557.974 370.548C566.062 379.542 572.164 390.14 575.882 401.65C579.6 413.16 580.85 425.325 579.55 437.351V437.352C578.683 445.127 577.228 452.825 575.198 460.38C573.098 468.196 570.447 475.853 567.266 483.294C566.184 485.829 565.033 488.37 563.812 490.916C562.595 493.457 561.317 495.986 559.979 498.502L559.838 498.767L559.697 499.032Z" fill="#E6E6E6"/>
<path id="Vector_16" d="M497.096 373.532H178.096C171.068 373.532 164.328 370.74 159.358 365.771C154.388 360.801 151.596 354.061 151.596 347.032C151.596 340.004 154.388 333.264 159.358 328.294C164.328 323.324 171.068 320.532 178.096 320.532H497.096C504.124 320.532 510.865 323.324 515.834 328.294C520.804 333.264 523.596 340.004 523.596 347.032C523.596 354.061 520.804 360.801 515.834 365.771C510.865 370.74 504.124 373.532 497.096 373.532V373.532Z" fill="#F50057"/>
<path id="Vector_17" d="M501.12 355.205H176.414L176.194 354.505C171.171 338.569 168.308 322.031 167.682 305.334C167.394 296.863 168.815 288.42 171.861 280.51C174.906 272.6 179.513 265.384 185.407 259.292C191.302 253.201 198.362 248.359 206.168 245.055C213.974 241.751 222.365 240.053 230.841 240.062H452.876C461.742 240.052 470.51 241.91 478.609 245.515C486.709 249.119 493.959 254.388 499.886 260.98C505.814 267.572 510.288 275.338 513.015 283.774C515.742 292.209 516.663 301.124 515.716 309.939C514.08 324.866 509.265 339.918 501.403 354.675L501.12 355.205Z" fill="#E6E6E6"/>
<path id="Vector_18" d="M457.096 273.532H222.096C215.068 273.532 208.328 270.74 203.358 265.771C198.388 260.801 195.596 254.061 195.596 247.032C195.596 240.004 198.388 233.264 203.358 228.294C208.328 223.324 215.068 220.532 222.096 220.532H457.096C464.124 220.532 470.865 223.324 475.834 228.294C480.804 233.264 483.596 240.004 483.596 247.032C483.596 254.061 480.804 260.801 475.834 265.771C470.865 270.74 464.124 273.532 457.096 273.532V273.532Z" fill="#F50057"/>
<path id="Vector_19" d="M472.746 180.322C467.82 174.832 461.794 170.441 455.059 167.432C448.325 164.424 441.032 162.867 433.656 162.862H250.066C243.036 162.855 236.076 164.264 229.601 167.005C223.127 169.745 217.27 173.762 212.381 178.814C207.492 183.866 203.671 189.851 201.144 196.412C198.618 202.973 197.438 209.976 197.676 217.002C198.192 230.826 200.56 244.518 204.716 257.712L204.936 258.412H473.646L473.926 257.882C480.203 246.398 484.225 233.818 485.776 220.822C486.569 213.535 485.819 206.163 483.574 199.185C481.329 192.207 477.64 185.78 472.746 180.322V180.322Z" fill="#E6E6E6"/>
<path id="Vector_20" d="M430.306 162.862H256.886C255.598 166.839 255.269 171.064 255.925 175.192C256.582 179.321 258.205 183.235 260.664 186.616C263.122 189.997 266.345 192.748 270.07 194.646C273.795 196.543 277.916 197.532 282.096 197.532H405.096C409.276 197.532 413.397 196.543 417.122 194.646C420.847 192.748 424.07 189.997 426.529 186.616C428.987 183.235 430.611 179.321 431.267 175.192C431.924 171.064 431.594 166.839 430.306 162.862V162.862Z" fill="#F50057"/>
<path id="Vector_21" d="M566.346 482.902C564.186 487.962 561.769 493.006 559.096 498.032H116.096C113.194 488.807 110.813 479.426 108.966 469.932C109.792 469.291 110.747 468.835 111.765 468.597C112.784 468.359 113.841 468.344 114.866 468.552C116.977 469.221 118.802 470.581 120.046 472.412C123.776 477.252 125.336 483.382 126.806 489.322C128.376 485.822 130.006 482.232 132.746 479.532C133.837 478.402 135.15 477.51 136.602 476.913C138.055 476.316 139.616 476.026 141.186 476.062C142.296 474.077 143.88 472.397 145.796 471.173C148.486 469.573 152.156 469.353 154.606 471.283C156.25 472.765 157.346 474.76 157.716 476.943C159.086 482.903 157.946 489.122 156.806 495.142C159.696 492.602 162.676 490.023 166.286 488.713C167.92 488.115 169.659 487.859 171.396 487.963C171.736 484.636 172.614 481.387 173.996 478.343C175.165 475.424 177.186 472.926 179.796 471.173C182.486 469.573 186.156 469.353 188.606 471.283C190.25 472.765 191.346 474.76 191.716 476.943C193.086 482.903 191.946 489.122 190.806 495.142C193.696 492.602 196.676 490.023 200.286 488.713C201.92 488.115 203.659 487.859 205.396 487.963C205.736 484.636 206.614 481.387 207.996 478.343C209.165 475.424 211.186 472.926 213.796 471.173C216.486 469.573 220.156 469.353 222.606 471.283C224.25 472.765 225.346 474.76 225.716 476.943C227.086 482.903 225.946 489.122 224.806 495.142C227.696 492.602 230.676 490.023 234.286 488.713C235.92 488.115 237.659 487.859 239.396 487.963C239.736 484.636 240.614 481.387 241.996 478.343C243.165 475.424 245.186 472.926 247.796 471.173C250.486 469.573 254.156 469.353 256.606 471.283C258.25 472.765 259.346 474.76 259.716 476.943C261.086 482.903 259.946 489.122 258.806 495.142C261.696 492.602 264.676 490.023 268.286 488.713C269.92 488.115 271.659 487.859 273.396 487.963C273.736 484.636 274.614 481.387 275.996 478.343C277.165 475.424 279.186 472.926 281.796 471.173C284.486 469.573 288.156 469.353 290.606 471.283C292.25 472.765 293.346 474.76 293.716 476.943C295.086 482.903 293.946 489.122 292.806 495.142C295.696 492.602 298.676 490.023 302.286 488.713C303.92 488.115 305.659 487.859 307.396 487.963C307.736 484.636 308.614 481.387 309.996 478.343C311.165 475.424 313.186 472.926 315.796 471.173C318.486 469.573 322.156 469.353 324.606 471.283C326.25 472.765 327.346 474.76 327.716 476.943C329.086 482.903 327.946 489.122 326.806 495.142C329.696 492.602 332.676 490.023 336.286 488.713C337.92 488.115 339.659 487.859 341.396 487.963C341.736 484.636 342.614 481.387 343.996 478.343C345.165 475.424 347.186 472.926 349.796 471.173C352.486 469.573 356.156 469.353 358.606 471.283C360.25 472.765 361.346 474.76 361.716 476.943C363.086 482.903 361.946 489.122 360.806 495.142C363.696 492.602 366.676 490.023 370.286 488.713C371.92 488.115 373.659 487.859 375.396 487.963C375.736 484.636 376.614 481.387 377.996 478.343C379.165 475.424 381.186 472.926 383.796 471.173C386.486 469.573 390.156 469.353 392.606 471.283C394.25 472.765 395.346 474.76 395.716 476.943C397.086 482.903 395.946 489.122 394.806 495.142C397.696 492.602 400.676 490.023 404.286 488.713C405.92 488.115 407.659 487.859 409.396 487.963C409.736 484.636 410.614 481.387 411.996 478.343C413.165 475.424 415.186 472.926 417.796 471.173C420.486 469.573 424.156 469.353 426.606 471.283C428.25 472.765 429.346 474.76 429.716 476.943C431.086 482.903 429.946 489.122 428.806 495.142C431.696 492.602 434.676 490.023 438.286 488.713C439.92 488.115 441.659 487.859 443.396 487.963C443.736 484.636 444.614 481.387 445.996 478.343C447.165 475.424 449.186 472.926 451.796 471.173C454.486 469.573 458.156 469.353 460.606 471.283C462.25 472.765 463.346 474.76 463.716 476.943C465.086 482.903 463.946 489.122 462.806 495.142C465.696 492.602 468.676 490.023 472.286 488.713C473.92 488.115 475.659 487.859 477.396 487.963C477.736 484.636 478.614 481.387 479.996 478.343C481.165 475.424 483.186 472.926 485.796 471.173C488.486 469.573 492.156 469.353 494.606 471.283C496.25 472.765 497.346 474.76 497.716 476.943C499.086 482.903 497.946 489.122 496.806 495.142C499.696 492.602 502.676 490.023 506.286 488.713C507.92 488.115 509.659 487.859 511.396 487.963C511.736 484.636 512.614 481.387 513.996 478.343C515.165 475.424 517.186 472.926 519.796 471.173C522.486 469.573 526.156 469.353 528.606 471.283C530.25 472.765 531.346 474.76 531.716 476.943C533.086 482.903 531.946 489.122 530.806 495.142C533.696 492.602 536.676 490.023 540.286 488.713C541.92 488.115 543.659 487.859 545.396 487.963C545.736 484.636 546.614 481.387 547.996 478.343C549.165 475.424 551.186 472.926 553.796 471.173C556.486 469.573 560.156 469.353 562.606 471.283C564.25 472.765 565.346 474.76 565.716 476.943C566.151 478.899 566.362 480.898 566.346 482.902V482.902Z" fill="#F50057"/>
<path id="Vector_22" d="M171.65 284.761C175.944 295.107 182.484 304.369 190.796 311.878C199.107 319.388 208.983 324.957 219.71 328.183C223.365 329.293 227.113 330.071 230.908 330.507C234.523 330.897 238.489 330.669 241.481 328.376C245.791 325.074 245.698 315.633 238.873 315.703C235.499 315.737 232.675 318.828 232.256 322.038C231.766 325.785 234.095 329.286 236.887 331.55C243.011 336.518 251.414 337.132 258.88 335.577C267.454 333.791 274.969 328.944 282.488 324.696C291.097 319.832 301.328 314.947 311.454 317.553C319.133 319.529 326.136 327.59 323.632 335.82L325.836 334.924C322.502 333.412 321.692 329.235 323.001 326.039C324.639 322.038 329.43 320.544 333.404 320.547C338.644 320.551 343.484 322.982 348.135 325.125C352.415 327.14 356.862 328.779 361.425 330.024C379.423 334.702 398.485 333.011 415.378 325.238C419.525 323.361 423.471 321.071 427.158 318.402C430.075 316.251 433.444 312.486 431.093 308.71C430.661 307.974 430.054 307.355 429.326 306.909C428.599 306.463 427.773 306.203 426.921 306.151C424.868 306.14 423.967 307.567 423.326 309.307C422.06 313.011 422.046 317.028 423.287 320.741C425.891 328.968 432.832 334.647 441.064 336.72C450.168 339.013 459.971 337.449 468.773 334.616C485.602 329.146 500.1 318.168 509.928 303.452C511.156 301.603 512.291 299.697 513.351 297.747C514.273 296.05 511.684 294.534 510.761 296.233C502.688 310.95 489.951 322.566 474.555 329.254C460.425 335.39 437.033 339.909 427.793 323.614C425.879 320.401 425.07 316.65 425.489 312.934C425.656 311.758 426.034 308.353 427.76 309.464C429.714 310.722 428.652 312.945 427.408 314.274C424.607 317.268 420.371 319.371 416.761 321.232C412.891 323.222 408.853 324.867 404.693 326.148C387.843 331.405 369.696 330.7 353.305 324.15C344.608 320.588 334.681 314.265 325.251 319.491C323.543 320.394 322.104 321.733 321.08 323.372C320.056 325.01 319.484 326.891 319.421 328.822C319.317 332.366 320.989 336.003 324.322 337.514C324.521 337.625 324.743 337.689 324.971 337.703C325.199 337.717 325.427 337.679 325.638 337.593C325.849 337.507 326.039 337.375 326.192 337.206C326.346 337.037 326.46 336.836 326.525 336.618C328.402 330.45 325.804 323.995 321.251 319.696C315.896 314.639 308.605 313.191 301.457 314.178C285.221 316.419 273.449 329.735 257.556 332.789C250.7 334.107 242.241 333.367 237.309 327.827C235.105 325.352 233.861 320.339 237.981 318.882C241.004 317.812 241.949 321.396 241.275 323.602C239.193 330.415 227.687 327.192 222.912 325.957C216.345 324.246 210.058 321.604 204.241 318.11C190.93 310.214 180.517 298.24 174.543 283.963C173.823 282.2 170.919 282.971 171.65 284.761H171.65Z" fill="#CCCCCC"/>
<path id="Vector_23" d="M107.495 411.999C130.493 407.665 158.769 403.299 176.02 423.276C179.442 427.156 181.806 431.851 182.885 436.91C183.342 439.185 183.914 441.709 181.605 443.114C180.716 443.628 179.711 443.908 178.685 443.929C177.659 443.951 176.643 443.712 175.734 443.237C170.695 440.441 173.502 433.005 177.295 430.568C182.459 427.251 189.103 428.667 194.403 430.827C200.154 433.17 205.593 436.165 211.412 438.373C216.912 440.458 222.551 442.155 228.288 443.452C240.173 446.144 252.374 447.165 264.54 446.484C276.339 445.946 287.991 443.653 299.114 439.682C303.37 438.094 307.799 435.8 310.392 431.921C311.583 430.196 312.195 428.136 312.136 426.041C312.078 423.945 311.353 421.923 310.066 420.267C308.714 418.449 306.766 417.163 304.562 416.633C302.359 416.104 300.039 416.364 298.008 417.369C296.129 418.384 294.602 419.945 293.63 421.846C292.831 423.412 291.79 426.508 292.809 428.158C293.327 428.996 294.593 429.329 295.422 429.735C296.811 430.416 298.211 431.074 299.622 431.707C302.09 432.816 304.588 433.857 307.115 434.829C312.647 436.954 318.305 438.735 324.057 440.161C346.687 445.756 370.303 446.048 393.065 441.016C398.725 439.761 404.303 438.164 409.77 436.235C414.938 434.41 420.394 432.457 425.146 429.691C428.893 427.511 433.285 423.766 432.932 418.97C432.79 417.218 431.971 415.589 430.647 414.432C429.324 413.274 427.601 412.679 425.845 412.772C424.042 412.777 422.275 413.284 420.744 414.237C419.213 415.189 417.977 416.548 417.175 418.163C415.139 422.781 417.176 428.04 420.146 431.726C426.56 439.686 437.501 442.545 447.317 442.447C458.692 442.334 469.476 438.741 480.026 434.834C491.842 430.459 504.177 425.601 517.013 426.377C528.58 427.077 539.48 433.92 551.226 432.499C561.421 431.266 567.406 423.107 570.051 413.818C571.246 409.289 572.063 404.668 572.494 400.004C572.708 398.088 569.706 398.104 569.494 400.004C568.473 409.123 566.924 420.687 558.861 426.478C549.083 433.5 536.351 427.312 526.103 424.817C514.28 421.94 502.676 423.902 491.278 427.636C480.051 431.314 469.243 436.341 457.549 438.44C447.391 440.263 436.147 440.061 427.288 434.142C422.935 431.234 417.743 425.516 419.746 419.789C420.89 416.517 426.85 413.84 429.271 417.273C432.835 422.328 423.874 427.119 420.432 428.703C415.161 431.121 409.742 433.201 404.208 434.932C367.988 446.23 328.8 443.067 294.861 426.106L295.604 427.401C295.027 422.22 300.29 417.36 305.314 420.085C310.098 422.681 310.066 428.379 306.496 431.952C302.98 435.472 297.937 437.038 293.297 438.432C288.175 439.97 282.961 441.177 277.685 442.045C255.527 445.654 232.809 443.34 211.835 435.337C202.441 431.737 192.713 424.426 182.182 425.788C177.981 426.331 173.919 428.369 171.736 432.123C169.812 435.432 169.398 439.781 171.443 443.131C174.708 448.478 186.14 448.231 186.338 440.731C186.563 432.188 181.172 423.657 175.149 418.059C156.394 400.624 129.633 404.784 106.697 409.106C104.802 409.463 105.605 412.355 107.495 411.999L107.495 411.999Z" fill="#CCCCCC"/>
<path id="Vector_24" d="M398.096 120.032H395.096C396.672 123.24 396.028 128.12 395.809 131.596C395.564 135.483 395.229 139.365 394.935 143.248C394.273 151.979 393.612 160.711 392.951 169.442C392.805 171.368 395.806 171.359 395.951 169.442L397.71 146.213C398.009 142.259 398.309 138.305 398.608 134.352C398.851 129.573 398.68 124.782 398.096 120.032V120.032Z" fill="#3F3D56"/>
<path id="Vector_25" d="M398.308 120.372C398.941 118.504 399.167 116.521 398.971 114.558C398.775 112.595 398.161 110.696 397.171 108.99C396.963 108.661 396.636 108.425 396.257 108.333C395.879 108.241 395.48 108.299 395.144 108.495C394.808 108.692 394.561 109.011 394.456 109.386C394.351 109.76 394.396 110.161 394.58 110.504C395.374 111.863 395.86 113.38 396.004 114.947C396.148 116.514 395.947 118.094 395.415 119.575C395.31 119.958 395.362 120.368 395.558 120.713C395.755 121.059 396.08 121.312 396.464 121.418C396.847 121.524 397.256 121.473 397.602 121.277C397.948 121.081 398.202 120.755 398.308 120.372H398.308Z" fill="#3F3D56"/>
<path id="Vector_26" d="M281.096 117.032H278.096C279.672 120.24 279.028 125.12 278.809 128.596C278.564 132.483 278.229 136.365 277.935 140.248C277.273 148.979 276.612 157.711 275.951 166.442C275.805 168.368 278.806 168.359 278.951 166.442L280.71 143.213C281.009 139.259 281.309 135.305 281.608 131.352C281.851 126.573 281.68 121.782 281.096 117.032Z" fill="#3F3D56"/>
<path id="Vector_27" d="M281.308 117.372C281.941 115.504 282.167 113.521 281.971 111.558C281.775 109.595 281.161 107.696 280.171 105.99C279.963 105.661 279.636 105.425 279.257 105.333C278.879 105.241 278.48 105.299 278.144 105.495C277.808 105.692 277.561 106.011 277.456 106.386C277.351 106.76 277.396 107.161 277.58 107.504C278.374 108.863 278.86 110.38 279.004 111.947C279.148 113.514 278.947 115.094 278.416 116.575C278.31 116.958 278.362 117.368 278.558 117.713C278.755 118.059 279.08 118.312 279.464 118.418C279.847 118.524 280.257 118.473 280.602 118.277C280.948 118.081 281.202 117.755 281.308 117.372H281.308Z" fill="#3F3D56"/>
<path id="Vector_28" d="M336.096 112.032H333.096C334.672 115.24 334.028 120.12 333.809 123.596C333.564 127.483 333.229 131.365 332.935 135.248C332.273 143.979 331.612 152.711 330.951 161.442C330.805 163.368 333.806 163.359 333.951 161.442L335.71 138.213C336.009 134.259 336.309 130.305 336.608 126.352C336.851 121.573 336.68 116.782 336.096 112.032V112.032Z" fill="#3F3D56"/>
<path id="Vector_29" d="M336.308 112.372C336.941 110.504 337.167 108.521 336.971 106.558C336.775 104.595 336.161 102.696 335.171 100.99C334.963 100.661 334.636 100.425 334.257 100.333C333.879 100.241 333.48 100.299 333.144 100.495C332.808 100.692 332.561 101.011 332.456 101.386C332.351 101.76 332.396 102.161 332.58 102.504C333.374 103.863 333.86 105.38 334.004 106.947C334.148 108.514 333.947 110.094 333.415 111.575C333.31 111.958 333.362 112.368 333.558 112.713C333.755 113.059 334.08 113.312 334.464 113.418C334.847 113.524 335.256 113.473 335.602 113.277C335.948 113.081 336.202 112.755 336.308 112.372H336.308Z" fill="#3F3D56"/>
<path id="Vector_30" d="M378.518 291.268C377.778 288.443 374.952 286.058 372.079 286.579C369.771 286.998 368.069 289.115 367.431 291.373C366.935 293.673 366.87 296.044 367.24 298.367C364.664 295.657 361.983 292.874 358.535 291.429C357.322 290.833 355.942 290.663 354.621 290.949C353.722 291.277 352.939 291.863 352.371 292.633C351.802 293.403 351.473 294.323 351.424 295.279C351.362 297.2 351.88 299.094 352.91 300.716C354.349 303.2 356.324 305.332 358.691 306.956C361.058 308.58 363.758 309.656 366.594 310.104L365.665 308.891C370.385 307.245 374.361 303.966 376.875 299.645C378.335 297.116 379.258 294.092 378.518 291.268Z" fill="#F50057"/>
<path id="Vector_31" d="M242.518 409.268C241.778 406.443 238.952 404.058 236.079 404.579C233.771 404.998 232.069 407.115 231.431 409.373C230.935 411.673 230.87 414.044 231.24 416.367C228.664 413.657 225.983 410.874 222.535 409.429C221.322 408.833 219.942 408.663 218.621 408.949C217.722 409.277 216.939 409.863 216.371 410.633C215.802 411.403 215.473 412.323 215.424 413.279C215.362 415.2 215.88 417.094 216.91 418.716C218.349 421.2 220.324 423.332 222.691 424.956C225.058 426.58 227.758 427.656 230.594 428.104L229.665 426.891C234.385 425.245 238.361 421.966 240.876 417.645C242.335 415.116 243.258 412.092 242.518 409.268Z" fill="#F50057"/>
<path id="Vector_32" d="M266.518 233.268C265.778 230.443 262.952 228.058 260.079 228.579C257.771 228.998 256.069 231.115 255.431 233.373C254.935 235.672 254.87 238.044 255.24 240.367C252.664 237.657 249.983 234.874 246.535 233.429C245.322 232.833 243.942 232.663 242.621 232.949C241.722 233.277 240.939 233.863 240.371 234.633C239.802 235.403 239.473 236.323 239.424 237.279C239.362 239.2 239.88 241.094 240.91 242.716C242.349 245.2 244.324 247.332 246.691 248.956C249.058 250.58 251.758 251.656 254.594 252.104L253.665 250.891C258.385 249.245 262.361 245.966 264.876 241.645C266.335 239.116 267.258 236.092 266.518 233.268Z" fill="#F50057"/>
<path id="Vector_33" d="M666.472 207.241C667.899 207.203 669.299 206.852 670.576 206.213C671.852 205.575 672.972 204.665 673.858 203.546C674.745 202.428 675.375 201.129 675.705 199.741C676.034 198.352 676.056 196.909 675.767 195.511L704.551 177.157L688.324 169.313L663.529 187.975C661.213 188.616 659.213 190.083 657.907 192.099C656.601 194.116 656.081 196.541 656.443 198.916C656.806 201.291 658.028 203.45 659.876 204.984C661.725 206.519 664.072 207.322 666.473 207.241L666.472 207.241Z" fill="#9E616A"/>
<path id="Vector_34" d="M672.34 117.922C672.34 117.922 655.444 104.26 662.149 94.5657C668.854 84.8719 685.976 95.4276 685.976 95.4276L735.815 152.08C735.815 152.08 682.873 200.133 684.515 192.996C686.157 185.86 673.877 180.281 673.877 180.281L697.502 153.71L692.32 151.198L694.434 149.982L692.211 144.772L672.34 117.922Z" fill="#F50057"/>
<path id="Vector_35" d="M687.779 23.4895C685.611 20.165 683.221 16.6519 679.541 15.1664C675.86 13.681 670.641 15.4572 670.141 19.3943C669.767 22.3374 672.012 24.8653 673.703 27.3032C675.393 29.7411 676.492 33.4208 674.284 35.4021L673.042 36.0427C674.23 37.5768 675.76 38.811 677.511 39.6465C679.262 40.482 681.184 40.8954 683.124 40.8535C686.984 40.6091 690.705 37.7438 691.356 33.9308C691.991 30.2129 689.839 26.6489 687.779 23.4895Z" fill="#2F2E41"/>
</g>
</g>
<defs>
<filter id="filter0_i_2_2" x="604.302" y="82.768" width="84.6022" height="150.706" filterUnits="userSpaceOnUse" color-interpolation-filters="sRGB">
<feFlood flood-opacity="0" result="BackgroundImageFix"/>
<feBlend mode="normal" in="SourceGraphic" in2="BackgroundImageFix" result="shape"/>
<feColorMatrix in="SourceAlpha" type="matrix" values="0 0 0 0 0 0 0 0 0 0 0 0 0 0 0 0 0 0 127 0" result="hardAlpha"/>
<feOffset dy="4"/>
<feGaussianBlur stdDeviation="2"/>
<feComposite in2="hardAlpha" operator="arithmetic" k2="-1" k3="1"/>
<feColorMatrix type="matrix" values="0 0 0 0 0 0 0 0 0 0 0 0 0 0 0 0 0 0 0.25 0"/>
<feBlend mode="normal" in2="shape" result="effect1_innerShadow_2_2"/>
</filter>
<clipPath id="clip0_2_2">
<rect width="827.13" height="500.907" fill="white"/>
</clipPath>
</defs>
</svg>
